<svg width="32" height="32" viewBox="0 0 32 32" fill="none" xmlns="http://www.w3.org/2000/svg">
<path fill-rule="evenodd" clip-rule="evenodd" d="M21.9999 14C21.9999 9.58172 18.4182 6 13.9999 6C9.92026 6 6.55387 9.05369 6.06177 13H8.08283C8.55891 10.1623 11.0269 8 13.9999 8C17.3136 8 19.9999 10.6863 19.9999 14C19.9999 17.3137 17.3136 20 13.9999 20C11.0269 20 8.55891 17.8377 8.08283 15H6.06177C6.55387 18.9463 9.92026 22 13.9999 22C15.8486 22 17.5508 21.3729 18.9055 20.3199L24.3638 25.7782L25.778 24.364L20.3197 18.9056C21.3728 17.551 21.9999 15.8487 21.9999 14Z" fill="#29363D"/>
</svg>
