<svg width="25" height="24" viewBox="0 0 25 24" fill="none" xmlns="http://www.w3.org/2000/svg">
<g id="Box_alt_fill">
<path id="Rectangle 2" d="M4.5 7.41421C4.5 7.20984 4.5 7.10765 4.53806 7.01577C4.57612 6.92388 4.64838 6.85162 4.79289 6.70711L6.32843 5.17157C6.90649 4.59351 7.19552 4.30448 7.56306 4.15224C7.9306 4 8.33935 4 9.15685 4H15.8431C16.6606 4 17.0694 4 17.4369 4.15224C17.8045 4.30448 18.0935 4.59351 18.6716 5.17157L20.2071 6.70711C20.3516 6.85162 20.4239 6.92388 20.4619 7.01577C20.5 7.10765 20.5 7.20984 20.5 7.41421V8H4.5V7.41421Z" stroke="#496AF3" stroke-opacity="0.7" stroke-width="2"/>
<path id="Subtract" fill-rule="evenodd" clip-rule="evenodd" d="M21.5 8H3.5V17C3.5 18.8856 3.5 19.8284 4.08579 20.4142C4.67157 21 5.61438 21 7.5 21H17.5C19.3856 21 20.3284 21 20.9142 20.4142C21.5 19.8284 21.5 18.8856 21.5 17V8ZM10.5 11C10.5 10.4477 10.0523 10 9.5 10C8.94772 10 8.5 10.4477 8.5 11C8.5 12.0609 8.92143 13.0783 9.67157 13.8284C10.4217 14.5786 11.4391 15 12.5 15C13.5609 15 14.5783 14.5786 15.3284 13.8284C16.0786 13.0783 16.5 12.0609 16.5 11C16.5 10.4477 16.0523 10 15.5 10C14.9477 10 14.5 10.4477 14.5 11C14.5 11.5304 14.2893 12.0391 13.9142 12.4142C13.5391 12.7893 13.0304 13 12.5 13C11.9696 13 11.4609 12.7893 11.0858 12.4142C10.7107 12.0391 10.5 11.5304 10.5 11Z" fill="#496AF3" fill-opacity="0.7"/>
</g>
</svg>
