<svg width="800" height="774" viewBox="0 0 800 774" fill="none" xmlns="http://www.w3.org/2000/svg">
<path d="M346.667 114.813C155.52 114.813 3.74214e-05 254.867 3.74214e-05 427C3.74214e-05 486.987 18.9067 545.08 54.7467 595.36C47.9467 669.733 29.9467 724.853 3.9067 750.907C-0.146629 754.96 -1.15996 761.147 1.40004 766.28C3.68004 770.853 8.33337 773.667 13.3334 773.667C13.9467 773.667 14.5734 773.627 15.2 773.533C19.8534 772.88 127.627 757.36 206.093 712.4C250.493 730.173 297.747 739.187 346.68 739.187C537.827 739.187 693.347 599.147 693.347 427C693.347 254.853 537.827 114.813 346.667 114.813Z" fill="#E4E5E8"/>
<path d="M745.253 480.893C781.093 430.6 800 372.493 800 312.52C800 140.373 644.493 0.333496 453.333 0.333496C343.387 0.333496 240.427 48.2268 175.68 125.933C226.947 101.853 285.067 88.1468 346.667 88.1468C552.52 88.1468 720 240.147 720 427C720 500.413 694.067 568.387 650.187 623.933C716.133 649.093 781.56 658.6 784.8 659.053C785.427 659.133 786.053 659.187 786.667 659.187C791.667 659.187 796.32 656.373 798.6 651.8C801.16 646.667 800.147 640.48 796.093 636.427C770.04 610.373 752.04 555.253 745.253 480.893Z" fill="#E4E5E8"/>
</svg>
