<svg width="22" height="21" viewBox="0 0 22 21" fill="none" xmlns="http://www.w3.org/2000/svg">
<path d="M3.45067 12.9082L10.4033 19.4395C10.6428 19.6644 10.7625 19.7769 10.9037 19.8046C10.9673 19.8171 11.0327 19.8171 11.0963 19.8046C11.2375 19.7769 11.3572 19.6644 11.5967 19.4395L18.5493 12.9082C20.5055 11.0706 20.743 8.0466 19.0978 5.92607L18.7885 5.52734C16.8203 2.99058 12.8696 3.41601 11.4867 6.31365C11.2913 6.72296 10.7087 6.72296 10.5133 6.31365C9.13037 3.41601 5.17972 2.99058 3.21154 5.52735L2.90219 5.92607C1.25695 8.0466 1.4945 11.0706 3.45067 12.9082Z" stroke="#BEC0C6" stroke-width="2"/>
</svg>
