<svg width="73" height="73" viewBox="0 0 73 73" fill="none" xmlns="http://www.w3.org/2000/svg">
<g id="Img_box_fill">
<path id="Subtract" fill-rule="evenodd" clip-rule="evenodd" d="M7.2549 7.25494C6.08333 8.42651 6.08333 10.3121 6.08333 14.0834V58.9167C6.08333 62.6879 6.08333 64.5736 7.2549 65.7451C8.42648 66.9167 10.3121 66.9167 14.0833 66.9167H58.9167C62.6879 66.9167 64.5735 66.9167 65.7451 65.7451C66.9167 64.5736 66.9167 62.6879 66.9167 58.9167V14.0834C66.9167 10.3121 66.9167 8.42651 65.7451 7.25494C65.6353 7.14512 65.5192 7.04559 65.3958 6.95539V51.7084H64.147C62.512 51.7084 61.6945 51.7084 60.9595 51.4039C60.2244 51.0994 59.6463 50.5213 58.4902 49.3652L51.4951 42.3701C50.1618 41.0368 49.4951 40.3701 48.6667 40.3701C47.8382 40.3701 47.1716 41.0368 45.8383 42.3701L45.8382 42.3701L38.5888 49.6195C37.6424 50.5659 37.1692 51.0391 36.6482 50.9388C36.1272 50.8385 35.8636 50.2234 35.3363 48.9932L29.7023 35.8471C28.6479 33.3867 28.1206 32.1565 27.0786 31.9558C26.0365 31.7552 25.0901 32.7016 23.1973 34.5944L10.6458 47.1459V6.14062C9.02874 6.23997 7.99814 6.51171 7.2549 7.25494Z" fill="#E2E5EF"/>
<path id="Rectangle 1" d="M7.08333 14.0835C7.08333 12.1696 7.08546 10.8348 7.22086 9.82765C7.3524 8.84929 7.59299 8.33119 7.96201 7.96218C8.33103 7.59316 8.84913 7.35256 9.82749 7.22103C10.8346 7.08562 12.1694 7.0835 14.0833 7.0835H58.9167C60.8306 7.0835 62.1654 7.08562 63.1725 7.22103C64.1509 7.35256 64.669 7.59316 65.038 7.96217C65.407 8.33119 65.6476 8.84929 65.7791 9.82766C65.9145 10.8348 65.9167 12.1696 65.9167 14.0835V58.9168C65.9167 60.8307 65.9145 62.1655 65.7791 63.1727C65.6476 64.151 65.407 64.6691 65.038 65.0381C64.669 65.4072 64.1509 65.6478 63.1725 65.7793C62.1654 65.9147 60.8306 65.9168 58.9167 65.9168H14.0833C12.1694 65.9168 10.8346 65.9147 9.82749 65.7793C8.84913 65.6478 8.33103 65.4072 7.96201 65.0381C7.59299 64.6691 7.3524 64.151 7.22086 63.1727C7.08546 62.1655 7.08333 60.8307 7.08333 58.9168V14.0835Z" stroke="#E2E5EF" stroke-width="2"/>
<circle id="Ellipse 46" cx="45.625" cy="27.3748" r="6.08333" fill="#E2E5EF"/>
</g>
</svg>
