<svg width="800" height="800" viewBox="0 0 800 800" fill="none" xmlns="http://www.w3.org/2000/svg">
<g clip-path="url(#clip0_252_75)">
<path d="M438.079 308.09C442.861 308.09 447.471 308.858 451.91 310.139L534.728 208.623C540.021 202.134 549.84 200.939 556.243 206.403C562.476 211.611 563.33 220.918 558.122 227.236L476.243 327.641C481.793 335.325 485.123 344.803 485.123 355.049C485.123 374.088 473.682 390.566 457.375 397.908H778.655C790.438 397.908 800 388.347 800 376.563V106.339C800 94.5571 790.438 84.9946 778.655 84.9946H370.544C358.762 84.9946 349.2 94.5571 349.2 106.339V283.757L368.495 308.175H438.079V308.09Z" fill="black"/>
<path d="M171.868 191.462C220.153 191.462 259.296 152.319 259.296 104.034C259.296 55.7488 220.153 16.606 171.868 16.606C123.583 16.606 84.4397 55.7488 84.4397 104.034C84.4397 152.319 123.583 191.462 171.868 191.462Z" fill="black"/>
<path d="M261.515 762.049C261.515 773.832 251.953 783.394 240.171 783.394H204.312C192.529 783.394 182.967 773.832 182.967 762.049V583.095C182.967 576.777 177.844 571.654 171.526 571.654C165.208 571.654 160.085 576.777 160.085 583.095V761.195C160.085 773.405 150.096 783.394 137.887 783.394H102.796C91.0139 783.394 81.4514 773.832 81.4514 762.049L81.2807 330.032C81.2807 324.226 76.5848 319.446 70.6937 319.446C64.8879 319.446 60.1067 324.142 60.1067 330.032V496.179C60.1067 507.962 50.5443 517.524 38.762 517.524H21.3447C9.56243 517.524 0 507.962 0 496.179V268.388C0 241.323 21.9424 219.466 48.9221 219.466H243.33C264.161 219.466 283.885 229.029 296.862 245.336L349.113 311.249L360.127 325.165C360.127 325.165 409.647 325.165 438.163 325.251C449.946 325.251 459.508 334.813 459.508 346.595V363.586C459.508 375.368 449.946 384.931 438.163 384.931H345.784C336.649 384.931 328.026 380.747 322.391 373.574L283.458 323.542C281.494 320.981 278.335 319.444 275.091 319.444H272.444C266.638 319.444 261.858 324.14 261.858 330.03L261.515 762.049Z" fill="black"/>
</g>
<defs>
<clipPath id="clip0_252_75">
<rect width="800" height="800" fill="white"/>
</clipPath>
</defs>
</svg>
